<svg preserveAspectRatio="none" width="100%" height="100%" overflow="visible" style="display: block;" viewBox="0 0 12 12" fill="none" xmlns="http://www.w3.org/2000/svg">
<path id="Vector" d="M9.39253 6.26063L6.72506 5.27494L5.74248 2.60541C5.68429 2.44733 5.57901 2.3109 5.44085 2.21454C5.30269 2.11817 5.1383 2.0665 4.96985 2.0665C4.80141 2.0665 4.63701 2.11817 4.49885 2.21454C4.36069 2.3109 4.25542 2.44733 4.19723 2.60541L3.20844 5.27494L0.538905 6.25752C0.380827 6.31571 0.244401 6.42099 0.148035 6.55915C0.0516688 6.69731 0 6.8617 0 7.03015C0 7.19859 0.0516688 7.36299 0.148035 7.50115C0.244401 7.63931 0.380827 7.74458 0.538905 7.80277L3.20844 8.79156L4.19102 11.4611C4.24921 11.6192 4.35449 11.7556 4.49265 11.852C4.63081 11.9483 4.7952 12 4.96365 12C5.13209 12 5.29649 11.9483 5.43465 11.852C5.57281 11.7556 5.67808 11.6192 5.73627 11.4611L6.72506 8.79156L9.39459 7.80898C9.55267 7.75079 9.6891 7.64551 9.78546 7.50735C9.88183 7.36919 9.9335 7.2048 9.9335 7.03635C9.9335 6.86791 9.88183 6.70351 9.78546 6.56535C9.6891 6.42719 9.55267 6.32192 9.39459 6.26373L9.39253 6.26063ZM6.25963 8.07893C6.20347 8.09963 6.15247 8.13226 6.11015 8.17458C6.06783 8.2169 6.03519 8.2679 6.0145 8.32406L4.96675 11.1627L3.92107 8.32613C3.90041 8.26938 3.86757 8.21784 3.82486 8.17514C3.78216 8.13243 3.73062 8.09959 3.67387 8.07893L0.837301 7.03325L3.67387 5.98757C3.73062 5.96691 3.78216 5.93407 3.82486 5.89136C3.86757 5.84866 3.90041 5.79712 3.92107 5.74037L4.96675 2.9038L6.01243 5.74037C6.03313 5.79653 6.06576 5.84753 6.10808 5.88985C6.1504 5.93217 6.2014 5.96481 6.25756 5.9855L9.0962 7.03325L6.25963 8.07893ZM6.62163 1.65488C6.62163 1.54516 6.66522 1.43993 6.74281 1.36234C6.82039 1.28475 6.92563 1.24116 7.03535 1.24116H7.86279V0.413721C7.86279 0.303995 7.90638 0.198764 7.98397 0.121176C8.06156 0.0435883 8.16679 0 8.27651 0C8.38624 0 8.49147 0.0435883 8.56906 0.121176C8.64665 0.198764 8.69023 0.303995 8.69023 0.413721V1.24116H9.51768C9.6274 1.24116 9.73263 1.28475 9.81022 1.36234C9.88781 1.43993 9.9314 1.54516 9.9314 1.65488C9.9314 1.76461 9.88781 1.86984 9.81022 1.94743C9.73263 2.02501 9.6274 2.0686 9.51768 2.0686H8.69023V2.89604C8.69023 3.00577 8.64665 3.111 8.56906 3.18859C8.49147 3.26618 8.38624 3.30976 8.27651 3.30976C8.16679 3.30976 8.06156 3.26618 7.98397 3.18859C7.90638 3.111 7.86279 3.00577 7.86279 2.89604V2.0686H7.03535C6.92563 2.0686 6.82039 2.02501 6.74281 1.94743C6.66522 1.86984 6.62163 1.76461 6.62163 1.65488ZM12 4.13721C12 4.24693 11.9564 4.35216 11.8788 4.42975C11.8012 4.50734 11.696 4.55093 11.5863 4.55093H11.1726V4.96465C11.1726 5.07437 11.129 5.1796 11.0514 5.25719C10.9738 5.33478 10.8686 5.37837 10.7588 5.37837C10.6491 5.37837 10.5439 5.33478 10.4663 5.25719C10.3887 5.1796 10.3451 5.07437 10.3451 4.96465V4.55093H9.9314C9.82167 4.55093 9.71644 4.50734 9.63885 4.42975C9.56126 4.35216 9.51768 4.24693 9.51768 4.13721C9.51768 4.02748 9.56126 3.92225 9.63885 3.84466C9.71644 3.76707 9.82167 3.72349 9.9314 3.72349H10.3451V3.30976C10.3451 3.20004 10.3887 3.09481 10.4663 3.01722C10.5439 2.93963 10.6491 2.89604 10.7588 2.89604C10.8686 2.89604 10.9738 2.93963 11.0514 3.01722C11.129 3.09481 11.1726 3.20004 11.1726 3.30976V3.72349H11.5863C11.696 3.72349 11.8012 3.76707 11.8788 3.84466C11.9564 3.92225 12 4.02748 12 4.13721Z" fill="#FAFAF7"/>
</svg>
