<svg preserveAspectRatio="none" width="100%" height="100%" overflow="visible" style="display: block;" viewBox="0 0 8 13" fill="none" xmlns="http://www.w3.org/2000/svg">
<path id="Vector" d="M7.8045 6.91805L1.13858 12.8268C1.07664 12.8817 1.00312 12.9253 0.922198 12.955C0.841279 12.9847 0.75455 13 0.666963 13C0.579376 13 0.492647 12.9847 0.411727 12.955C0.330807 12.9253 0.257282 12.8817 0.195349 12.8268C0.133415 12.7719 0.0842872 12.7068 0.0507692 12.635C0.0172512 12.5633 0 12.4864 0 12.4088C0 12.3312 0.0172512 12.2543 0.0507692 12.1825C0.0842872 12.1108 0.133415 12.0456 0.195349 11.9907L6.39049 6.5L0.195349 1.00925C0.0702687 0.898382 -1.31793e-09 0.748006 0 0.591208C1.31793e-09 0.43441 0.0702687 0.284034 0.195349 0.173161C0.320428 0.0622877 0.490073 1.16824e-09 0.666963 0C0.843852 -1.16824e-09 1.0135 0.0622877 1.13858 0.173161L7.8045 6.08195C7.86648 6.13683 7.91564 6.202 7.94919 6.27373C7.98273 6.34546 8 6.42235 8 6.5C8 6.57765 7.98273 6.65454 7.94919 6.72627C7.91564 6.798 7.86648 6.86317 7.8045 6.91805Z" fill="#8C8880"/>
</svg>
