<svg preserveAspectRatio="none" width="100%" height="100%" overflow="visible" style="display: block;" viewBox="0 0 12 16" fill="none" xmlns="http://www.w3.org/2000/svg">
<path id="Vector" d="M6 3.42861C5.4606 3.42861 4.93331 3.59618 4.48481 3.91013C4.03631 4.22408 3.68675 4.67031 3.48033 5.19239C3.27391 5.71447 3.2199 6.28895 3.32513 6.84318C3.43036 7.39742 3.69011 7.90652 4.07153 8.3061C4.45294 8.70569 4.9389 8.97781 5.46794 9.08805C5.99697 9.19829 6.54534 9.14171 7.04368 8.92546C7.54203 8.70921 7.96797 8.343 8.26764 7.87314C8.56732 7.40328 8.72727 6.85087 8.72727 6.28578C8.72727 5.52801 8.43994 4.80128 7.92847 4.26545C7.41701 3.72963 6.72332 3.42861 6 3.42861ZM6 8.00008C5.67636 8.00008 5.35998 7.89954 5.09089 7.71117C4.82179 7.5228 4.61205 7.25506 4.4882 6.94181C4.36434 6.62856 4.33194 6.28388 4.39508 5.95133C4.45822 5.61879 4.61407 5.31333 4.84292 5.07358C5.07177 4.83383 5.36334 4.67056 5.68076 4.60441C5.99818 4.53827 6.3272 4.57222 6.62621 4.70197C6.92522 4.83172 7.18078 5.05145 7.36059 5.33336C7.54039 5.61528 7.63636 5.94672 7.63636 6.28578C7.63636 6.74044 7.46396 7.17648 7.15708 7.49797C6.85021 7.81947 6.43399 8.00008 6 8.00008ZM6 0C4.40926 0.00189054 2.88418 0.664747 1.75935 1.84315C0.634525 3.02155 0.00180459 4.61927 0 6.28578C0 8.52866 0.989318 10.9058 2.86364 13.1608C3.70583 14.1798 4.65372 15.0974 5.68977 15.8966C5.78149 15.9639 5.89075 16 6.00273 16C6.1147 16 6.22397 15.9639 6.31568 15.8966C7.34983 15.0971 8.29587 14.1795 9.13636 13.1608C11.008 10.9058 12 8.52866 12 6.28578C11.9982 4.61927 11.3655 3.02155 10.2406 1.84315C9.11582 0.664747 7.59075 0.00189054 6 0ZM6 14.7144C4.87295 13.7859 1.09091 10.3751 1.09091 6.28578C1.09091 4.92179 1.60812 3.61367 2.52875 2.64919C3.44938 1.68471 4.69803 1.14287 6 1.14287C7.30197 1.14287 8.55062 1.68471 9.47125 2.64919C10.3919 3.61367 10.9091 4.92179 10.9091 6.28578C10.9091 10.3737 7.12705 13.7859 6 14.7144Z" fill="#FAFAF7"/>
</svg>
