<svg preserveAspectRatio="none" width="100%" height="100%" overflow="visible" style="display: block;" viewBox="0 0 12 11" fill="none" xmlns="http://www.w3.org/2000/svg">
<path id="Vector" d="M10.9613 6.43567C11.0238 6.41449 11.08 6.37745 11.1244 6.32805C11.1689 6.27866 11.2002 6.21855 11.2154 6.15343C11.2306 6.08832 11.2291 6.02035 11.2111 5.95597C11.1931 5.89159 11.1593 5.83294 11.1127 5.78558L5.52511 0.114959C5.45253 0.0413493 5.35412 0 5.25151 0C5.1489 0 5.05049 0.0413493 4.97791 0.114959L3.01314 2.11139L1.82296 0.900567C1.75033 0.826926 1.65186 0.785581 1.54919 0.785627C1.44653 0.785673 1.34809 0.827107 1.27552 0.900813C1.20296 0.974519 1.16222 1.07446 1.16227 1.17865C1.16231 1.28284 1.20314 1.38274 1.27576 1.45639L2.46595 2.66426L0.340067 4.82026C0.122325 5.04126 0 5.34098 0 5.6535C0 5.96602 0.122325 6.26574 0.340067 6.48673L4.44717 10.6549C4.66493 10.8759 4.96026 11 5.2682 11C5.57615 11 5.87148 10.8759 6.08924 10.6549L9.8867 6.80098L10.9613 6.43567ZM9.40385 6.17838L5.54156 10.0981C5.46898 10.1717 5.37057 10.213 5.26796 10.213C5.16535 10.213 5.06694 10.1717 4.99436 10.0981L0.888713 5.93141C0.816182 5.85775 0.775438 5.75788 0.775438 5.65374C0.775438 5.54961 0.816182 5.44974 0.888713 5.37608L3.01314 3.21959L4.42201 4.64939C4.26739 4.93996 4.22099 5.2773 4.2913 5.59973C4.3616 5.92216 4.54392 6.20813 4.8049 6.40536C5.06589 6.60259 5.3881 6.69789 5.71263 6.67384C6.03716 6.6498 6.34232 6.508 6.57231 6.27439C6.80229 6.04078 6.94174 5.73096 6.96515 5.40159C6.98856 5.07221 6.89437 4.74529 6.6998 4.4806C6.50523 4.21591 6.22328 4.03114 5.90551 3.96008C5.58774 3.88901 5.25538 3.9364 4.96921 4.09357L3.56082 2.66426L5.25417 0.948195L10.1223 5.89213L9.55528 6.08362C9.49831 6.10299 9.44649 6.13542 9.40385 6.17838ZM5.20289 4.88655C5.31209 4.75435 5.46853 4.67154 5.63785 4.6563C5.80717 4.64106 5.97552 4.69464 6.10595 4.80527C6.23637 4.9159 6.3182 5.07455 6.33347 5.24636C6.34873 5.41817 6.29618 5.58911 6.18736 5.72163C6.07854 5.85416 5.92235 5.93744 5.75307 5.95318C5.5838 5.96893 5.41529 5.91585 5.28454 5.80561C5.1538 5.69537 5.07151 5.53697 5.05575 5.3652C5.03998 5.19344 5.09203 5.02234 5.20047 4.88949C5.20047 4.88949 5.20289 4.88704 5.20289 4.88655ZM11.1611 7.63618C11.1257 7.5823 11.0778 7.53811 11.0216 7.50755C10.9654 7.47699 10.9026 7.461 10.8388 7.461C10.7751 7.461 10.7123 7.47699 10.6561 7.50755C10.5999 7.53811 10.552 7.5823 10.5166 7.63618C10.431 7.76924 9.67769 8.94078 9.67769 9.82017C9.67769 10.1327 9.80003 10.4324 10.0178 10.6534C10.2355 10.8744 10.5309 10.9986 10.8388 10.9986C11.1468 10.9986 11.4421 10.8744 11.6599 10.6534C11.8777 10.4324 12 10.1327 12 9.82017C12 8.94078 11.2467 7.76924 11.1611 7.63814V7.63618ZM10.8388 10.213C10.7362 10.213 10.6377 10.1716 10.5652 10.0979C10.4926 10.0243 10.4518 9.92435 10.4518 9.82017C10.4518 9.48629 10.6453 9.01885 10.8388 8.63783C11.0324 9.01885 11.2259 9.48923 11.2259 9.82017C11.2259 9.92435 11.1851 10.0243 11.1125 10.0979C11.0399 10.1716 10.9415 10.213 10.8388 10.213Z" fill="#FAFAF7"/>
</svg>
