<svg preserveAspectRatio="none" width="100%" height="100%" overflow="visible" style="display: block;" viewBox="0 0 12 11" fill="none" xmlns="http://www.w3.org/2000/svg">
<path id="Vector" d="M12 0.44C12 0.323305 11.9548 0.211389 11.8745 0.128873C11.7941 0.046357 11.6851 0 11.5714 0C9.20991 0 6.7868 2.73405 5.44105 4.54465C4.96043 4.39354 4.45198 4.36024 3.95656 4.44745C3.46113 4.53466 2.99253 4.73994 2.5884 5.04679C2.18426 5.35365 1.85586 5.75353 1.62956 6.21432C1.40326 6.6751 1.28538 7.18396 1.28538 7.7C1.28538 9.3984 0.238564 10.1601 0.188741 10.1953C0.112715 10.2481 0.0551666 10.3244 0.024559 10.4132C-0.0060486 10.502 -0.00810055 10.5985 0.0187049 10.6886C0.0455103 10.7786 0.0997586 10.8575 0.173473 10.9136C0.247187 10.9696 0.336477 10.9999 0.428213 11H4.49977C5.00242 11 5.49807 10.879 5.94691 10.6467C6.39574 10.4143 6.78525 10.0772 7.08414 9.66228C7.38304 9.24738 7.58299 8.7663 7.66793 8.25768C7.75288 7.74906 7.72045 7.22707 7.57326 6.73365C9.33742 5.35205 12 2.8644 12 0.44ZM4.49977 10.12H1.42628C1.7879 9.59255 2.14255 8.7956 2.14255 7.7C2.14255 7.22137 2.2808 6.75349 2.53981 6.35552C2.79883 5.95755 3.16697 5.64738 3.5977 5.46421C4.02842 5.28105 4.50238 5.23312 4.95964 5.3265C5.41689 5.41988 5.83691 5.65036 6.16657 5.9888C6.49623 6.32724 6.72074 6.75845 6.81169 7.22788C6.90264 7.69732 6.85596 8.1839 6.67755 8.62609C6.49914 9.06829 6.19701 9.44624 5.80937 9.71216C5.42172 9.97807 4.96598 10.12 4.49977 10.12ZM6.23661 4.92525C6.42018 4.68105 6.60037 4.45097 6.77716 4.235C7.20988 4.53514 7.58252 4.9177 7.87487 5.36195C7.66415 5.54308 7.44004 5.72807 7.20253 5.9169C6.95278 5.5197 6.6235 5.18165 6.23661 4.92525ZM8.52418 4.77785C8.20062 4.30914 7.80212 3.90003 7.34557 3.56785C9.04812 1.6687 10.3323 1.09285 11.0903 0.9328C10.9376 1.7116 10.3741 3.02995 8.52418 4.77785Z" fill="#FAFAF7"/>
</svg>
