<svg preserveAspectRatio="none" width="100%" height="100%" overflow="visible" style="display: block;" viewBox="0 0 12 12" fill="none" xmlns="http://www.w3.org/2000/svg">
<path id="Vector" d="M11.7187 2.96254L9.03791 0.281244C8.94876 0.19208 8.84292 0.12135 8.72643 0.0730938C8.60995 0.0248374 8.48509 0 8.359 0C8.23291 0 8.10806 0.0248374 7.99157 0.0730938C7.87508 0.12135 7.76924 0.19208 7.68009 0.281244L0.281408 7.68016C0.191875 7.76898 0.12089 7.87471 0.0725812 7.9912C0.024272 8.10769 -0.000398068 8.23262 4.85703e-06 8.35873V11.04C4.85703e-06 11.2946 0.101149 11.5388 0.281186 11.7188C0.461223 11.8989 0.705405 12 0.960016 12H3.64145C3.76756 12.0004 3.8925 11.9757 4.009 11.9274C4.1255 11.8791 4.23123 11.8081 4.32006 11.7186L11.7187 4.32029C11.8079 4.23115 11.8786 4.12531 11.9269 4.00883C11.9752 3.89235 12 3.7675 12 3.64142C12 3.51533 11.9752 3.39049 11.9269 3.274C11.8786 3.15752 11.8079 3.05169 11.7187 2.96254ZM3.64145 11.04H0.960016V8.35873L6.24008 3.07894L8.92151 5.76023L3.64145 11.04ZM9.60012 5.08106L6.91869 2.40036L8.3587 0.960418L11.0401 3.64112L9.60012 5.08106Z" fill="#FAFAF7"/>
</svg>
