<svg preserveAspectRatio="none" width="100%" height="100%" overflow="visible" style="display: block;" viewBox="0 0 12 11" fill="none" xmlns="http://www.w3.org/2000/svg">
<path id="Vector" d="M8.10231 4.08375L5.33308 2.08375C5.26355 2.0335 5.18274 2.00464 5.09926 2.00026C5.01578 1.99588 4.93277 2.01614 4.85908 2.05887C4.7854 2.10161 4.72381 2.16521 4.68089 2.24291C4.63797 2.3206 4.61533 2.40946 4.61538 2.5V6.5C4.61533 6.59054 4.63797 6.6794 4.68089 6.75709C4.72381 6.83479 4.7854 6.89839 4.85908 6.94113C4.93277 6.98386 5.01578 7.00412 5.09926 6.99974C5.18274 6.99536 5.26355 6.9665 5.33308 6.91625L8.10231 4.91625C8.16562 4.87061 8.21753 4.80873 8.25344 4.73611C8.28935 4.66349 8.30814 4.58238 8.30814 4.5C8.30814 4.41762 8.28935 4.33651 8.25344 4.26389C8.21753 4.19127 8.16562 4.12939 8.10231 4.08375ZM5.53846 5.56563V3.4375L7.01423 4.5L5.53846 5.56563ZM11.0769 0H0.923077C0.678262 0 0.443473 0.105357 0.270363 0.292893C0.0972524 0.48043 0 0.734784 0 1V8C0 8.26522 0.0972524 8.51957 0.270363 8.70711C0.443473 8.89464 0.678262 9 0.923077 9H11.0769C11.3217 9 11.5565 8.89464 11.7296 8.70711C11.9027 8.51957 12 8.26522 12 8V1C12 0.734784 11.9027 0.48043 11.7296 0.292893C11.5565 0.105357 11.3217 0 11.0769 0ZM11.0769 8H0.923077V1H11.0769V8ZM12 10.5C12 10.6326 11.9514 10.7598 11.8648 10.8536C11.7783 10.9473 11.6609 11 11.5385 11H0.461538C0.339131 11 0.221737 10.9473 0.135181 10.8536C0.0486262 10.7598 0 10.6326 0 10.5C0 10.3674 0.0486262 10.2402 0.135181 10.1464C0.221737 10.0527 0.339131 10 0.461538 10H11.5385C11.6609 10 11.7783 10.0527 11.8648 10.1464C11.9514 10.2402 12 10.3674 12 10.5Z" fill="#EDF5FB"/>
</svg>
