<svg preserveAspectRatio="none" width="100%" height="100%" overflow="visible" style="display: block;" viewBox="0 0 13 13" fill="none" xmlns="http://www.w3.org/2000/svg">
<g id="Frame 119" clip-path="url(#clip0_0_26)">
<path id="Vector" d="M1.18677 10.9424L1.15788 4.28609L6.93683 0.982979C7.04284 0.912726 7.1181 0.804714 7.14728 0.680929C7.17647 0.557144 7.15739 0.426889 7.09393 0.316676C7.03046 0.206463 6.92738 0.124576 6.80567 0.0876817C6.68396 0.0507873 6.55277 0.0616587 6.43879 0.118083L0.407648 3.56427C0.330809 3.60818 0.267006 3.67171 0.222754 3.74836C0.178502 3.82501 0.155386 3.91203 0.15577 4.00053L0.18686 10.9467C0.186282 11.013 0.198862 11.0786 0.223867 11.1399C0.248872 11.2012 0.285805 11.257 0.332523 11.3039C0.379241 11.3508 0.434813 11.388 0.496014 11.4133C0.557215 11.4385 0.622826 11.4514 0.689038 11.4511C0.755251 11.4508 0.820746 11.4374 0.881723 11.4116C0.9427 11.3858 0.997944 11.3481 1.04425 11.3008C1.09055 11.2534 1.127 11.1974 1.15146 11.1359C1.17593 11.0743 1.18793 11.0086 1.18677 10.9424ZM9.53591 1.61753C9.61165 1.66149 9.67452 1.72457 9.71822 1.80047C9.76193 1.87636 9.78493 1.9624 9.78493 2.04998L9.81602 8.99619C9.8164 9.08469 9.79329 9.17171 9.74903 9.24836C9.70478 9.32501 9.64098 9.38854 9.56414 9.43245L3.533 12.8786C3.45712 12.922 3.37121 12.9447 3.28383 12.9445C3.19644 12.9443 3.11063 12.9212 3.03496 12.8775C2.95928 12.8338 2.89637 12.7711 2.85251 12.6955C2.80865 12.6199 2.78536 12.5341 2.78496 12.4468L2.75387 5.50054C2.75349 5.41204 2.7766 5.32502 2.82085 5.24837C2.86511 5.17173 2.92891 5.1082 3.00575 5.06428L9.03689 1.6181C9.11273 1.57431 9.19875 1.55121 9.28632 1.55111C9.3739 1.55101 9.45997 1.57391 9.53591 1.61753ZM8.78965 2.91008L3.75598 5.7861L3.78211 11.5834L8.81578 8.70738L8.78965 2.91008Z" fill="#FAFAF7"/>
</g>
<defs>
<clipPath id="clip0_0_26">
<rect width="13" height="13" fill="white"/>
</clipPath>
</defs>
</svg>
