<svg preserveAspectRatio="none" overflow="visible" style="display: block;" width="36" height="36" viewBox="0 0 36 36" fill="none" xmlns="http://www.w3.org/2000/svg">
<g id="Buttons">
<rect width="36" height="36" rx="7" fill="#E8E6DF"/>
<path id="Vector" d="M18.4962 12.9115L20.4058 15.413M12.6181 17.6767L23.4941 14.5151L22.9883 12.871C22.7986 12.2387 22.103 11.8593 21.4075 12.049L12.871 14.5783C12.2387 14.768 11.8593 15.4636 12.049 16.1591L12.6181 17.6767ZM12.6181 17.6767H24V22.7353C24 23.0708 23.8668 23.3924 23.6296 23.6296C23.3924 23.8668 23.0708 24 22.7353 24H13.8828C13.5473 24 13.2257 23.8668 12.9885 23.6296C12.7513 23.3924 12.6181 23.0708 12.6181 22.7353V17.6767ZM14.6289 14.0573L16.5891 16.5227" stroke="#231F1B" stroke-linecap="round" stroke-linejoin="round"/>
</g>
</svg>
