<svg preserveAspectRatio="none" width="100%" height="100%" overflow="visible" style="display: block;" viewBox="0 0 9 5" fill="none" xmlns="http://www.w3.org/2000/svg">
<path id="Vector" d="M8.88012 0.711611L4.78942 4.87781C4.75143 4.91655 4.70631 4.94728 4.65665 4.96824C4.60699 4.98921 4.55376 5 4.5 5C4.44624 5 4.39301 4.98921 4.34335 4.96824C4.29369 4.94728 4.24857 4.91655 4.21058 4.87781L0.11988 0.711611C0.0431223 0.633436 0 0.527408 0 0.416852C0 0.306296 0.0431223 0.200268 0.11988 0.122093C0.196639 0.043918 0.300745 0 0.409298 0C0.51785 0 0.621957 0.043918 0.698715 0.122093L4.5 3.99406L8.30128 0.122093C8.33929 0.0833846 8.38441 0.0526795 8.43407 0.0317308C8.48373 0.010782 8.53695 0 8.5907 0C8.64445 0 8.69767 0.010782 8.74733 0.0317308C8.79699 0.0526795 8.84211 0.0833846 8.88012 0.122093C8.91813 0.160801 8.94827 0.206755 8.96884 0.257329C8.98941 0.307904 9 0.36211 9 0.416852C9 0.471593 8.98941 0.525799 8.96884 0.576374C8.94827 0.626949 8.91813 0.672902 8.88012 0.711611Z" fill="#FAFAF7"/>
</svg>
