<svg preserveAspectRatio="none" width="100%" height="100%" overflow="visible" style="display: block;" viewBox="0 0 38 38" fill="none" xmlns="http://www.w3.org/2000/svg">
<g id="Frame 82">
<rect width="38" height="38" rx="19" fill="#231F1B" fill-opacity="0.8"/>
<path id="Vector" d="M25.75 19C25.75 19.2431 25.671 19.4763 25.5303 19.6482C25.3897 19.8201 25.1989 19.9167 25 19.9167H13C12.8011 19.9167 12.6103 19.8201 12.4697 19.6482C12.329 19.4763 12.25 19.2431 12.25 19C12.25 18.7569 12.329 18.5237 12.4697 18.3518C12.6103 18.1799 12.8011 18.0833 13 18.0833H25C25.1989 18.0833 25.3897 18.1799 25.5303 18.3518C25.671 18.5237 25.75 18.7569 25.75 19ZM28.75 12.5833H9.25C9.05109 12.5833 8.86032 12.6799 8.71967 12.8518C8.57902 13.0237 8.5 13.2569 8.5 13.5C8.5 13.7431 8.57902 13.9763 8.71967 14.1482C8.86032 14.3201 9.05109 14.4167 9.25 14.4167H28.75C28.9489 14.4167 29.1397 14.3201 29.2803 14.1482C29.421 13.9763 29.5 13.7431 29.5 13.5C29.5 13.2569 29.421 13.0237 29.2803 12.8518C29.1397 12.6799 28.9489 12.5833 28.75 12.5833ZM21.25 23.5833H16.75C16.5511 23.5833 16.3603 23.6799 16.2197 23.8518C16.079 24.0237 16 24.2569 16 24.5C16 24.7431 16.079 24.9763 16.2197 25.1482C16.3603 25.3201 16.5511 25.4167 16.75 25.4167H21.25C21.4489 25.4167 21.6397 25.3201 21.7803 25.1482C21.921 24.9763 22 24.7431 22 24.5C22 24.2569 21.921 24.0237 21.7803 23.8518C21.6397 23.6799 21.4489 23.5833 21.25 23.5833Z" fill="#FAFAF7"/>
</g>
</svg>
