<svg preserveAspectRatio="none" width="100%" height="100%" overflow="visible" style="display: block;" viewBox="0 0 24 24" fill="none" xmlns="http://www.w3.org/2000/svg">
<g id="Frame 82">
<rect width="24" height="24" rx="12" fill="#231F1B" fill-opacity="0.8"/>
<path id="Vector" d="M12.4167 18.0667V17.2H16.1668C16.2888 17.2 16.4094 17.1721 16.5199 17.1183C16.6304 17.0645 16.7283 16.9861 16.8065 16.8886C16.8847 16.7912 16.9413 16.6771 16.9724 16.5544C17.0036 16.4316 17.0084 16.3033 16.9866 16.1784L15.4715 7.51175C15.4366 7.31206 15.3354 7.13143 15.1856 7.00136C15.0358 6.87129 14.8468 6.80003 14.6517 6.8H12.4167V5.93333C12.4167 5.81841 12.3728 5.70819 12.2947 5.62692C12.2166 5.54565 12.1106 5.5 12.0001 5.5C11.8896 5.5 11.7836 5.54565 11.7054 5.62692C11.6273 5.70819 11.5834 5.81841 11.5834 5.93333V6.8H9.34847C9.15331 6.80003 8.96435 6.87129 8.81453 7.00136C8.66472 7.13143 8.56355 7.31206 8.52866 7.51175L7.01354 16.1784C7.0047 16.2295 7.00017 16.2814 7 16.3333C7 16.5632 7.0878 16.7836 7.24408 16.9462C7.40036 17.1087 7.61233 17.2 7.83334 17.2H11.5834V18.0667C11.5834 18.1816 11.6273 18.2918 11.7054 18.3731C11.7836 18.4543 11.8896 18.5 12.0001 18.5C12.1106 18.5 12.2166 18.4543 12.2947 18.3731C12.3728 18.2918 12.4167 18.1816 12.4167 18.0667ZM14.6517 7.66667L16.1668 16.3333H12.4167V7.66667H14.6517ZM7.83334 16.3333L9.34847 7.66667H11.5834V16.3333H7.83334Z" fill="#8C8880"/>
</g>
</svg>
