<svg preserveAspectRatio="none" width="100%" height="100%" overflow="visible" style="display: block;" viewBox="0 0 24 24" fill="none" xmlns="http://www.w3.org/2000/svg">
<g id="Frame 83">
<rect width="24" height="24" rx="12" fill="#231F1B" fill-opacity="0.8"/>
<path id="Vector" d="M18.0667 11.5833H17.2V7.83322C17.2 7.71118 17.1721 7.59063 17.1183 7.4801C17.0645 7.36956 16.9861 7.27174 16.8886 7.19354C16.7912 7.11534 16.6771 7.05868 16.5544 7.02756C16.4316 6.99643 16.3033 6.99161 16.1784 7.01342L7.51175 8.52854C7.31206 8.56343 7.13143 8.6646 7.00136 8.81441C6.87129 8.96423 6.80003 9.15319 6.8 9.34835V11.5833H5.93333C5.81841 11.5833 5.70819 11.6272 5.62692 11.7053C5.54565 11.7834 5.5 11.8894 5.5 11.9999C5.5 12.1104 5.54565 12.2164 5.62692 12.2946C5.70819 12.3727 5.81841 12.4166 5.93333 12.4166H6.8V14.6515C6.80003 14.8467 6.87129 15.0357 7.00136 15.1855C7.13143 15.3353 7.31206 15.4365 7.51175 15.4713L16.1784 16.9865C16.2295 16.9953 16.2814 16.9998 16.3333 17C16.5632 17 16.7836 16.9122 16.9462 16.7559C17.1087 16.5996 17.2 16.3877 17.2 16.1667V12.4166H18.0667C18.1816 12.4166 18.2918 12.3727 18.3731 12.2946C18.4543 12.2164 18.5 12.1104 18.5 11.9999C18.5 11.8894 18.4543 11.7834 18.3731 11.7053C18.2918 11.6272 18.1816 11.5833 18.0667 11.5833ZM7.66667 9.34835L16.3333 7.83322V11.5833H7.66667V9.34835ZM16.3333 16.1667L7.66667 14.6515V12.4166H16.3333V16.1667Z" fill="#8C8880"/>
</g>
</svg>
