<svg preserveAspectRatio="none" width="100%" height="100%" overflow="visible" style="display: block;" viewBox="0 0 160 12" fill="none" xmlns="http://www.w3.org/2000/svg">
<g id="Frame 84">
<line id="Line 30" opacity="0.4" x1="9.625" y1="11.625" x2="9.625" y2="7.375" stroke="white" stroke-width="0.75" stroke-linecap="round"/>
<line id="Line 31" opacity="0.45" x1="15.625" y1="11.625" x2="15.625" y2="6.375" stroke="white" stroke-width="0.75" stroke-linecap="round"/>
<line id="Line 32" opacity="0.5" x1="21.625" y1="11.625" x2="21.625" y2="5.375" stroke="white" stroke-width="0.75" stroke-linecap="round"/>
<line id="Line 33" opacity="0.55" x1="27.625" y1="11.625" x2="27.625" y2="4.375" stroke="white" stroke-width="0.75" stroke-linecap="round"/>
<line id="Line 34" opacity="0.6" x1="33.625" y1="11.625" x2="33.625" y2="2.375" stroke="white" stroke-width="0.75" stroke-linecap="round"/>
<line id="Line 35" opacity="0.65" x1="39.625" y1="11.625" x2="39.625" y2="2.375" stroke="white" stroke-width="0.75" stroke-linecap="round"/>
<line id="Line 36" opacity="0.7" x1="45.625" y1="11.625" x2="45.625" y2="2.375" stroke="white" stroke-width="0.75" stroke-linecap="round"/>
<line id="Line 37" opacity="0.75" x1="51.625" y1="11.625" x2="51.625" y2="2.375" stroke="white" stroke-width="0.75" stroke-linecap="round"/>
<line id="Line 38" x1="57.625" y1="11.625" x2="57.625" y2="2.375" stroke="white" stroke-width="0.75" stroke-linecap="round"/>
<line id="Line 39" x1="63.625" y1="11.625" x2="63.625" y2="2.375" stroke="white" stroke-width="0.75" stroke-linecap="round"/>
<line id="Line 40" x1="69.625" y1="11.625" x2="69.625" y2="2.375" stroke="white" stroke-width="0.75" stroke-linecap="round"/>
<line id="Line 41" x1="75.625" y1="11.625" x2="75.625" y2="2.375" stroke="white" stroke-width="0.75" stroke-linecap="round"/>
<line id="Line 42" x1="81.625" y1="11.625" x2="81.625" y2="0.375" stroke="white" stroke-width="0.75" stroke-linecap="round"/>
<line id="Line 43" opacity="0.95" x1="87.625" y1="11.625" x2="87.625" y2="2.375" stroke="white" stroke-width="0.75" stroke-linecap="round"/>
<line id="Line 44" opacity="0.9" x1="93.625" y1="11.625" x2="93.625" y2="2.375" stroke="white" stroke-width="0.75" stroke-linecap="round"/>
<line id="Line 45" opacity="0.85" x1="99.625" y1="11.625" x2="99.625" y2="2.375" stroke="white" stroke-width="0.75" stroke-linecap="round"/>
<line id="Line 46" opacity="0.8" x1="105.625" y1="11.625" x2="105.625" y2="2.375" stroke="white" stroke-width="0.75" stroke-linecap="round"/>
<line id="Line 47" opacity="0.75" x1="111.625" y1="11.625" x2="111.625" y2="2.375" stroke="white" stroke-width="0.75" stroke-linecap="round"/>
<line id="Line 48" opacity="0.7" x1="117.625" y1="11.625" x2="117.625" y2="2.375" stroke="white" stroke-width="0.75" stroke-linecap="round"/>
<line id="Line 49" opacity="0.65" x1="123.625" y1="11.625" x2="123.625" y2="2.375" stroke="white" stroke-width="0.75" stroke-linecap="round"/>
<line id="Line 50" opacity="0.6" x1="129.625" y1="11.625" x2="129.625" y2="2.375" stroke="white" stroke-width="0.75" stroke-linecap="round"/>
<line id="Line 51" opacity="0.55" x1="135.625" y1="11.625" x2="135.625" y2="4.375" stroke="white" stroke-width="0.75" stroke-linecap="round"/>
<line id="Line 52" opacity="0.5" x1="141.625" y1="11.625" x2="141.625" y2="5.375" stroke="white" stroke-width="0.75" stroke-linecap="round"/>
<line id="Line 53" opacity="0.45" x1="147.625" y1="11.625" x2="147.625" y2="6.375" stroke="white" stroke-width="0.75" stroke-linecap="round"/>
<line id="Line 54" opacity="0.4" x1="153.625" y1="11.625" x2="153.625" y2="7.375" stroke="white" stroke-width="0.75" stroke-linecap="round"/>
</g>
</svg>
