<svg preserveAspectRatio="none" width="100%" height="100%" overflow="visible" style="display: block;" viewBox="0 0 24 24" fill="none" xmlns="http://www.w3.org/2000/svg">
<g id="Frame 81">
<rect width="24" height="24" rx="12" fill="#231F1B" fill-opacity="0.8"/>
<path id="Vector" d="M17.5 8.24959V10.7497C17.5 10.8602 17.4554 10.9662 17.3761 11.0443C17.2967 11.1225 17.1891 11.1664 17.0769 11.1664H14.5385C14.4263 11.1664 14.3187 11.1225 14.2394 11.0443C14.16 10.9662 14.1155 10.8602 14.1155 10.7497C14.1155 10.6392 14.16 10.5332 14.2394 10.4551C14.3187 10.3769 14.4263 10.333 14.5385 10.333H15.9875L14.5814 9.06421L14.5682 9.05171C13.9801 8.47277 13.2319 8.07732 12.417 7.91475C11.6022 7.75219 10.7567 7.82972 9.98629 8.13766C9.21588 8.44559 8.55467 8.97029 8.08526 9.64619C7.61586 10.3221 7.35907 11.1192 7.34697 11.9381C7.33488 12.7569 7.56801 13.561 8.01725 14.2501C8.46649 14.9392 9.11192 15.4826 9.87291 15.8125C10.6339 16.1424 11.4767 16.2441 12.2961 16.1049C13.1154 15.9658 13.875 15.5919 14.4798 15.0301C14.5614 14.9541 14.6703 14.9132 14.7825 14.9163C14.8947 14.9193 15.0011 14.9662 15.0782 15.0465C15.1554 15.1268 15.1969 15.2341 15.1938 15.3446C15.1907 15.4551 15.1431 15.5599 15.0616 15.6359C14.121 16.5144 12.8733 17.0029 11.5771 17H11.5073C10.6758 16.9888 9.85987 16.7766 9.13117 16.382C8.40247 15.9875 7.78332 15.4227 7.32815 14.7373C6.87297 14.0519 6.59569 13.2669 6.52069 12.4512C6.44569 11.6356 6.57527 10.8142 6.89802 10.0594C7.22077 9.30465 7.72683 8.6395 8.37171 8.12244C9.01659 7.60539 9.78054 7.25227 10.5964 7.09412C11.4123 6.93596 12.2552 6.97762 13.0509 7.21542C13.8466 7.45322 14.5708 7.87989 15.1599 8.45793L16.6539 9.80174V8.24959C16.6539 8.13908 16.6984 8.03309 16.7778 7.95495C16.8571 7.8768 16.9647 7.8329 17.0769 7.8329C17.1891 7.8329 17.2967 7.8768 17.3761 7.95495C17.4554 8.03309 17.5 8.13908 17.5 8.24959Z" fill="#8C8880"/>
</g>
</svg>
